HIERARCHY
ROOT Hips
{
	OFFSET 0.000000 0.000000 0.000000
	CHANNELS 6 Xposition Yposition Zposition Zrotation Xrotation Yrotation
	JOINT Spine
	{
		OFFSET 0.000000 -0.000001 4.475688
		CHANNELS 6 Xposition Yposition Zposition Zrotation Xrotation Yrotation
		JOINT Spine1
		{
			OFFSET 0.000000 -0.000002 12.213760
			CHANNELS 6 Xposition Yposition Zposition Zrotation Xrotation Yrotation
			JOINT Neck
			{
				OFFSET 0.000000 -0.000002 13.305416
				CHANNELS 6 Xposition Yposition Zposition Zrotation Xrotation Yrotation
				JOINT Head
				{
					OFFSET 0.000000 -1.091633 8.460155
					CHANNELS 6 Xposition Yposition Zposition Zrotation Xrotation Yrotation
					End Site
					{
						OFFSET 0.000000 -0.000002 10.916295
					}
				}
			}
			JOINT LeftShoulder
			{
				OFFSET 2.198259 0.288553 10.743412
				CHANNELS 6 Xposition Yposition Zposition Zrotation Xrotation Yrotation
				JOINT LeftArm
				{
					OFFSET 7.844010 0.000000 0.000000
					CHANNELS 6 Xposition Yposition Zposition Zrotation Xrotation Yrotation
					JOINT LeftForeArm
					{
						OFFSET 15.380849 0.000000 0.000000
						CHANNELS 6 Xposition Yposition Zposition Zrotation Xrotation Yrotation
						JOINT LeftHand
						{
							OFFSET 14.294480 0.000000 0.000000
							CHANNELS 6 Xposition Yposition Zposition Zrotation Xrotation Yrotation
							End Site
							{
								OFFSET 8.187222 0.000000 0.000000
							}
						}
					}
				}
			}
			JOINT RightShoulder
			{
				OFFSET -2.167933 0.288553 10.743412
				CHANNELS 6 Xposition Yposition Zposition Zrotation Xrotation Yrotation
				JOINT RightArm
				{
					OFFSET -7.844010 0.000000 0.000000
					CHANNELS 6 Xposition Yposition Zposition Zrotation Xrotation Yrotation
					JOINT RightForeArm
					{
						OFFSET -15.380850 0.000000 0.000000
						CHANNELS 6 Xposition Yposition Zposition Zrotation Xrotation Yrotation
						JOINT RightHand
						{
							OFFSET -14.294484 0.000000 0.000000
							CHANNELS 6 Xposition Yposition Zposition Zrotation Xrotation Yrotation
							End Site
							{
								OFFSET -8.187222 0.000000 0.000000
							}
						}
					}
				}
			}
		}
	}
	JOINT LeftUpLeg
	{
		OFFSET 5.458161 0.000000 0.000000
		CHANNELS 6 Xposition Yposition Zposition Zrotation Xrotation Yrotation
		JOINT LeftLeg
		{
			OFFSET 0.000000 0.000004 -22.955132
			CHANNELS 6 Xposition Yposition Zposition Zrotation Xrotation Yrotation
			JOINT LeftFoot
			{
				OFFSET 0.000000 0.000004 -24.065840
				CHANNELS 6 Xposition Yposition Zposition Zrotation Xrotation Yrotation
				JOINT LeftToeBase
				{
					OFFSET 0.000000 -8.187240 -3.547803
					CHANNELS 6 Xposition Yposition Zposition Zrotation Xrotation Yrotation
					End Site
					{
						OFFSET 0.000000 -2.183259 0.000000
					}
				}
			}
		}
	}
	JOINT RightUpLeg
	{
		OFFSET -5.458161 0.000000 0.000000
		CHANNELS 6 Xposition Yposition Zposition Zrotation Xrotation Yrotation
		JOINT RightLeg
		{
			OFFSET 0.000000 0.000004 -22.955132
			CHANNELS 6 Xposition Yposition Zposition Zrotation Xrotation Yrotation
			JOINT RightFoot
			{
				OFFSET 0.000000 0.000004 -24.065840
				CHANNELS 6 Xposition Yposition Zposition Zrotation Xrotation Yrotation
				JOINT RightToeBase
				{
					OFFSET 0.000000 -8.187240 -3.547803
					CHANNELS 6 Xposition Yposition Zposition Zrotation Xrotation Yrotation
					End Site
					{
						OFFSET 0.000000 -2.183259 0.000000
					}
				}
			}
		}
	}
}
MOTION
Frames: 7
Frame Time: 0.016667
-9.978125 -11.916420 47.797478 -2.574262 7.387490 0.659340 0.000000 -0.000001 4.475688 11.574604 -21.485397 5.798352 0.000000 -0.000001 12.213763 5.561172 20.883985 -11.185963 -0.000000 -0.000003 13.305418 -2.244890 0.468339 -7.018651 0.000002 -1.091630 8.460162 -1.341049 7.368828 1.428941 2.198258 0.288552 10.743410 0.709648 -2.997896 -13.393595 7.844010 -0.000001 -0.000009 -13.175784 3.036348 48.707650 15.380857 -0.000001 -0.000007 -78.187791 -8.099560 -31.245902 14.294477 -0.000000 0.000001 20.097347 -34.166385 -9.952067 -2.167933 0.288553 10.743407 7.888484 -4.459745 7.991291 -7.844010 0.000000 -0.000004 36.537820 -15.407577 -43.278152 -15.380847 0.000001 0.000003 79.538707 36.876646 58.683968 -14.294474 0.000002 -0.000002 -0.687299 -18.440493 56.572005 5.458163 -0.000000 -0.000003 1.894517 -9.050681 -0.920580 0.000001 0.000004 -22.955133 5.023894 10.451527 -3.277412 0.000001 0.000003 -24.065834 22.023443 -4.743366 -1.669753 -0.000000 -8.187240 -3.547800 -0.000000 0.000001 -0.000001 -5.458161 -0.000001 -0.000006 7.117989 -18.725083 19.252647 -0.000000 0.000004 -22.955133 16.422942 19.852295 -11.138953 -0.000001 0.000003 -24.065834 -47.860201 1.403152 -3.182217 -0.000003 -8.187238 -3.547803 -0.000004 0.000003 0.000002 
-9.871971 -11.880219 47.803535 -2.727956 7.366377 0.680489 0.000001 -0.000000 4.475687 11.403188 -21.446649 5.642903 -0.000001 -0.000004 12.213762 5.466611 20.812474 -10.967394 0.000000 -0.000002 13.305428 -2.001115 0.689484 -7.200116 -0.000000 -1.091632 8.460154 -1.057509 7.185272 1.650410 2.198259 0.288552 10.743423 0.375715 -3.214041 -13.329611 7.844013 0.000001 0.000002 -12.175830 1.083063 48.187330 15.380850 -0.000000 -0.000009 -77.875932 -7.861032 -32.100342 14.294483 -0.000001 -0.000004 19.710459 -34.905866 -13.017014 -2.167932 0.288552 10.743419 7.769235 -4.294552 7.917262 -7.844008 0.000000 -0.000003 36.430002 -15.616541 -43.819840 -15.380841 0.000000 -0.000002 79.699702 36.959585 58.171628 -14.294476 0.000005 0.000000 -0.873705 -17.942714 56.656334 5.458162 0.000001 -0.000001 1.934206 -9.131074 -0.820508 -0.000000 0.000004 -22.955137 5.353507 10.583333 -3.312267 0.000000 0.000002 -24.065832 21.817969 -4.796932 -1.710653 -0.000000 -8.187239 -3.547800 -0.000001 0.000003 -0.000000 -5.458160 -0.000001 0.000003 7.534648 -18.840167 19.232477 0.000001 0.000006 -22.955132 15.977645 20.286808 -11.364749 0.000000 0.000002 -24.065836 -47.970935 0.520072 -3.251427 0.000000 -8.187242 -3.547796 -0.000003 0.000003 0.000002 
-9.776956 -11.840251 47.810608 -2.857175 7.312683 0.713205 0.000001 -0.000002 4.475688 11.177588 -21.366894 5.487212 0.000001 0.000000 12.213765 5.362215 20.749857 -10.783584 -0.000000 -0.000003 13.305416 -1.722786 0.913280 -7.326376 0.000000 -1.091631 8.460147 -0.747791 6.975552 1.831396 2.198258 0.288551 10.743403 0.006505 -3.525584 -13.291200 7.844008 0.000001 0.000002 -11.356220 -0.518573 47.708475 15.380853 -0.000000 -0.000005 -77.601659 -7.627288 -33.132742 14.294478 -0.000002 -0.000000 19.265863 -35.772153 -16.105817 -2.167933 0.288553 10.743417 7.707895 -4.175233 7.878850 -7.844009 0.000000 -0.000001 36.479477 -15.537097 -44.355542 -15.380846 0.000001 0.000003 79.511079 37.059053 58.039478 -14.294483 -0.000003 -0.000007 -1.064673 -17.534422 56.849184 5.458162 -0.000002 -0.000001 1.814094 -9.213964 -0.871152 0.000001 0.000004 -22.955139 5.330958 10.824548 -3.090858 0.000000 0.000001 -24.065838 22.026470 -4.915449 -1.817105 0.000000 -8.187239 -3.547800 -0.000001 0.000001 0.000000 -5.458160 -0.000002 0.000000 7.964455 -18.886352 19.172420 0.000001 0.000008 -22.955130 15.399788 20.699464 -11.508935 -0.000000 0.000003 -24.065838 -47.942156 -0.144342 -3.465383 0.000001 -8.187239 -3.547800 -0.000002 0.000003 0.000002 
-9.686246 -11.806005 47.818104 -2.971319 7.267785 0.748198 -0.000000 -0.000001 4.475688 10.916774 -21.308922 5.313708 0.000000 -0.000004 12.213769 5.243376 20.686671 -10.580573 -0.000001 -0.000004 13.305406 -1.426879 1.155817 -7.486179 -0.000001 -1.091633 8.460165 -0.411267 6.772703 2.095279 2.198259 0.288552 10.743407 -0.289509 -3.749713 -13.247485 7.844011 -0.000000 -0.000000 -10.572639 -2.196645 47.079821 15.380845 0.000003 -0.000002 -77.303869 -7.538618 -33.897700 14.294479 0.000000 0.000006 18.767574 -36.531526 -19.341269 -2.167934 0.288552 10.743407 7.607857 -3.974135 7.828833 -7.844010 -0.000001 -0.000008 36.572132 -15.519800 -44.816010 -15.380842 0.000001 0.000004 79.443679 37.063806 57.735972 -14.294478 0.000003 -0.000008 -1.113692 -17.081694 57.103240 5.458162 0.000000 -0.000003 1.828637 -9.309130 -0.885149 0.000000 0.000004 -22.955139 5.295290 11.056955 -2.926262 0.000002 0.000001 -24.065840 22.140613 -5.009053 -1.884265 -0.000001 -8.187240 -3.547800 -0.000002 0.000002 -0.000000 -5.458161 -0.000000 0.000002 8.367263 -18.893007 19.098980 -0.000000 0.000010 -22.955133 15.262013 20.991615 -11.699858 -0.000000 -0.000000 -24.065838 -47.939964 -0.696201 -3.511540 -0.000001 -8.187240 -3.547800 -0.000004 0.000005 0.000002 
-9.598186 -11.776586 47.822048 -3.084446 7.193519 0.777862 0.000000 -0.000001 4.475682 10.637939 -21.195228 5.149836 0.000000 -0.000004 12.213761 5.119781 20.578310 -10.405121 -0.000000 -0.000001 13.305429 -1.113113 1.395294 -7.648199 -0.000002 -1.091632 8.460149 -0.054240 6.605626 2.400434 2.198260 0.288553 10.743426 -0.615311 -4.017969 -13.249364 7.844013 -0.000001 -0.000006 -9.803401 -3.690901 46.439952 15.380852 -0.000001 -0.000001 -76.874462 -7.382923 -34.548640 14.294479 -0.000003 0.000002 18.277692 -37.045546 -22.405944 -2.167933 0.288553 10.743421 7.459345 -3.765095 7.749275 -7.844010 -0.000000 -0.000015 36.840090 -15.300816 -45.200491 -15.380849 -0.000002 -0.000000 79.099492 37.130373 57.643976 -14.294466 0.000001 -0.000006 -1.466005 -16.679663 57.146120 5.458161 -0.000000 -0.000003 1.997719 -9.362806 -0.839606 0.000000 0.000003 -22.955139 5.426135 11.246370 -2.882745 0.000000 0.000003 -24.065834 21.962516 -5.101314 -1.950542 -0.000000 -8.187240 -3.547796 0.000001 0.000003 -0.000001 -5.458162 -0.000000 -0.000009 8.713994 -18.879218 19.014123 -0.000001 0.000007 -22.955128 15.200038 21.289013 -12.008781 0.000004 0.000002 -24.065842 -47.982868 -1.371902 -3.542582 -0.000001 -8.187238 -3.547800 -0.000002 0.000002 0.000001 
-9.516075 -11.751454 47.825397 -3.178139 7.115693 0.795500 0.000000 0.000000 4.475687 10.325204 -21.102103 5.008049 0.000002 -0.000002 12.213761 4.994736 20.510285 -10.271404 0.000000 -0.000002 13.305422 -0.777036 1.616035 -7.742562 0.000001 -1.091636 8.460155 0.317431 6.445625 2.674025 2.198260 0.288552 10.743412 -0.921234 -4.282158 -13.225516 7.844012 0.000001 -0.000006 -9.295405 -4.884593 45.712909 15.380849 0.000000 -0.000001 -76.350669 -7.183554 -35.382545 14.294477 0.000000 -0.000002 17.381440 -37.587054 -26.012557 -2.167932 0.288553 10.743416 7.400755 -3.586222 7.740091 -7.844008 -0.000001 0.000003 37.189069 -14.998981 -45.523194 -15.380842 0.000002 0.000001 78.557824 37.159026 57.766462 -14.294482 0.000004 -0.000002 -1.605523 -16.280369 57.541625 5.458161 0.000000 -0.000001 2.219239 -9.428383 -0.745567 0.000001 0.000004 -22.955139 5.623709 11.448979 -2.940749 0.000001 0.000002 -24.065836 21.674779 -5.170285 -1.947125 0.000000 -8.187239 -3.547804 -0.000000 0.000003 0.000002 -5.458161 0.000001 -0.000004 9.053513 -18.843681 18.932917 0.000003 0.000004 -22.955141 15.367839 21.460731 -12.236247 -0.000001 0.000002 -24.065836 -47.962224 -1.878331 -3.192216 -0.000000 -8.187242 -3.547804 -0.000000 0.000004 0.000000 
-9.441578 -11.727409 47.826488 -3.266457 7.072508 0.799872 -0.000000 -0.000002 4.475687 10.022057 -21.031544 4.885156 0.000001 0.000002 12.213758 4.866082 20.418553 -10.119468 -0.000000 -0.000001 13.305422 -0.472467 1.877178 -7.927456 0.000001 -1.091635 8.460170 0.675758 6.259144 3.117682 2.198258 0.288553 10.743412 -1.239553 -4.571214 -13.259336 7.844010 0.000001 0.000006 -8.766217 -5.997253 44.889342 15.380843 0.000002 0.000000 -75.602114 -6.919905 -35.931412 14.294479 -0.000002 -0.000000 16.289275 -37.707285 -29.851212 -2.167933 0.288554 10.743412 7.346791 -3.435188 7.691092 -7.844011 0.000000 -0.000008 37.362135 -14.632325 -45.913471 -15.380847 -0.000004 0.000008 78.211642 37.211690 57.616621 -14.294475 -0.000002 -0.000005 -1.848197 -15.776711 57.828391 5.458162 -0.000001 -0.000003 2.294674 -9.507296 -0.752583 0.000001 0.000005 -22.955139 5.708992 11.660126 -2.790213 0.000002 0.000004 -24.065836 21.587402 -5.283204 -2.014039 -0.000001 -8.187242 -3.547803 -0.000003 0.000002 -0.000000 -5.458162 -0.000001 -0.000003 9.332928 -18.849749 18.828166 0.000002 0.000007 -22.955132 16.082377 21.652391 -12.668859 -0.000002 0.000002 -24.065834 -48.219162 -2.618267 -2.807314 0.000003 -8.187241 -3.547800 0.000001 0.000003 0.000000 
